<svg width="24" height="24" viewBox="0 0 24 24" fill="none" xmlns="http://www.w3.org/2000/svg">
<path fill-rule="evenodd" clip-rule="evenodd" d="M16.5 7H7.5C6.948 7 6.5 7.448 6.5 8V9C6.5 9.552 6.948 10 7.5 10H16.5C17.052 10 17.5 9.552 17.5 9V8C17.5 7.448 17.052 7 16.5 7Z" stroke="#8DA0C6" stroke-width="1.2" stroke-linecap="round" stroke-linejoin="round"/>
<path d="M15.5911 7.00008L16.5871 5.00808C17.2211 3.74008 15.9041 2.38108 14.6171 2.97508L12.0001 4.18308L9.38306 2.97508C8.09606 2.38108 6.77906 3.73908 7.41306 5.00808L8.40906 7.00008" stroke="#8DA0C6" stroke-width="1.2" stroke-linecap="round" stroke-linejoin="round"/>
<path d="M7.75002 10L6.03302 12.747C4.81202 14.701 4.93702 17.209 6.34702 19.032V19.032C7.38902 20.38 8.99702 21.168 10.701 21.168H13.3C15.003 21.168 16.611 20.379 17.653 19.032V19.032C19.064 17.209 19.189 14.701 17.968 12.746C17.423 11.873 16.825 10.917 16.251 9.99805" stroke="#8DA0C6" stroke-width="1.2" stroke-linecap="round" stroke-linejoin="round"/>
</svg>
