<svg width="24" height="24" viewBox="0 0 24 24" fill="none" xmlns="http://www.w3.org/2000/svg">
<path d="M17.763 18.91L17.413 18.031C17.236 17.585 16.961 17.185 16.609 16.859L16.545 16.8C15.991 16.286 15.263 16 14.507 16H9.49296C8.73696 16 8.00896 16.286 7.45396 16.799L7.38996 16.859C7.03796 17.185 6.76396 17.585 6.58596 18.031L6.23596 18.91" stroke="#8DA0C6" stroke-width="1.2" stroke-linecap="round" stroke-linejoin="round"/>
<path d="M14.4749 7.44725C15.8417 8.81409 15.8417 11.0302 14.4749 12.397C13.108 13.7638 10.892 13.7638 9.52513 12.397C8.15829 11.0302 8.15829 8.81409 9.52513 7.44725C10.892 6.08041 13.108 6.08041 14.4749 7.44725" stroke="#8DA0C6" stroke-width="1.2" stroke-linecap="round" stroke-linejoin="round"/>
<path d="M18.3639 5.63604C21.8787 9.15076 21.8787 14.8492 18.3639 18.3639C14.8492 21.8787 9.15074 21.8787 5.63604 18.3639C2.12132 14.8492 2.12132 9.15074 5.63604 5.63604C9.15076 2.12132 14.8492 2.12132 18.3639 5.63604" stroke="#8DA0C6" stroke-width="1.2" stroke-linecap="round" stroke-linejoin="round"/>
</svg>
