<svg width="24" height="24" viewBox="0 0 24 24" fill="none" xmlns="http://www.w3.org/2000/svg">
<path d="M14 15.98V16.99" stroke="#8DA0C6" stroke-width="1.2" stroke-linecap="round" stroke-linejoin="round"/>
<path d="M10 15.98V16.99" stroke="#8DA0C6" stroke-width="1.2" stroke-linecap="round" stroke-linejoin="round"/>
<path fill-rule="evenodd" clip-rule="evenodd" d="M20 12H4C3.448 12 3 11.552 3 11V9C3 8.448 3.448 8 4 8H20C20.552 8 21 8.448 21 9V11C21 11.552 20.552 12 20 12Z" stroke="#8DA0C6" stroke-width="1.2" stroke-linecap="round" stroke-linejoin="round"/>
<path d="M14.04 3.03003L17 7.97003" stroke="#8DA0C6" stroke-width="1.2" stroke-linecap="round" stroke-linejoin="round"/>
<path d="M9.96 3.03003L7 7.97003" stroke="#8DA0C6" stroke-width="1.2" stroke-linecap="round" stroke-linejoin="round"/>
<path d="M19.7579 12L18.0709 19.789C17.9219 20.479 17.3109 20.971 16.6049 20.971H7.39494C6.68894 20.971 6.07894 20.479 5.92894 19.789L4.24194 12" stroke="#8DA0C6" stroke-width="1.2" stroke-linecap="round" stroke-linejoin="round"/>
</svg>
