<svg width="24" height="24" viewBox="0 0 24 24" fill="none" xmlns="http://www.w3.org/2000/svg">
<path fill-rule="evenodd" clip-rule="evenodd" d="M19.062 12.5051C19.734 11.8331 20.824 11.8321 21.496 12.5051V12.5051C22.168 13.1771 22.168 14.2671 21.495 14.9391L15.721 20.7081C15.534 20.8951 15.28 21.0001 15.015 21.0001H13V18.9851C13 18.7201 13.105 18.4661 13.293 18.2781L19.062 12.5051V12.5051Z" stroke="#8DA0C6" stroke-width="1.2" stroke-linecap="round" stroke-linejoin="round"/>
<path d="M7 9H15" stroke="#8DA0C6" stroke-width="1.2" stroke-linecap="round" stroke-linejoin="round"/>
<path d="M7 13H12" stroke="#8DA0C6" stroke-width="1.2" stroke-linecap="round" stroke-linejoin="round"/>
<path d="M7 17H10" stroke="#8DA0C6" stroke-width="1.2" stroke-linecap="round" stroke-linejoin="round"/>
<path d="M20.22 16.22L17.78 13.78" stroke="#8DA0C6" stroke-width="1.2" stroke-linecap="round" stroke-linejoin="round"/>
<path d="M19 9V6C19 4.895 18.105 4 17 4H5C3.895 4 3 4.895 3 6V19C3 20.105 3.895 21 5 21H9" stroke="#8DA0C6" stroke-width="1.2" stroke-linecap="round" stroke-linejoin="round"/>
<path d="M15 3V5" stroke="#8DA0C6" stroke-width="1.2" stroke-linecap="round" stroke-linejoin="round"/>
<path d="M11 3V5" stroke="#8DA0C6" stroke-width="1.2" stroke-linecap="round" stroke-linejoin="round"/>
<path d="M7 3V5" stroke="#8DA0C6" stroke-width="1.2" stroke-linecap="round" stroke-linejoin="round"/>
</svg>
